#!OML:ASF F:\VICON\USERDATA\INSTALL\rory3\rory3.ASF
:FULLY-SPECIFIED
:DEGREES
417
root -0.0362295 18.006 -0.922752 2.74042 -12.6084 1.40283
lowerback -0.498062 -2.42515 -3.1525
upperback 0.16807 -3.2294 2.42075
thorax 0.766327 -1.63819 4.21328
lowerneck -27.8198 0.45085 -7.55583
upperneck 26.3067 4.02567 -0.137536
head 13.3886 0.917612 1.95995
rclavicle 1.3418e-015 -1.19271e-014
rhumerus -32.6631 -5.1009 -80.8472
rradius 30.7027
rwrist 20.6968
rhand -17.9073 7.69671
rfingers 7.12502
rthumb 8.35975 -22.1179
lclavicle 1.3418e-015 -1.19271e-014
lhumerus -17.5983 -6.16589 88.6897
lradius 65.5473
lwrist 2.33398
lhand -31.4223 24.2077
lfingers 7.12502
lthumb -4.69091 54.1358
rfemur -9.4506 9.8905 14.6094
rtibia 24.9928
rfoot -15.2317 -2.6481
rtoes 4.69131
lfemur 0.948061 -2.33688 -22.1354
ltibia 10.284
lfoot -9.4484 8.41358
ltoes -11.5269
418
root -0.0352756 18.007 -0.928142 2.75764 -12.5723 1.38527
lowerback -0.464545 -2.44988 -3.13869
upperback 0.122255 -3.2632 2.43184
thorax 0.703596 -1.65304 4.21908
lowerneck -27.9368 0.414835 -7.57529
upperneck 26.3594 3.98753 -0.106518
head 13.434 0.900095 1.97075
rclavicle -1.76421e-014 5.56597e-015
rhumerus -32.6914 -4.93613 -80.953
rradius 30.7578
rwrist 20.6774
rhand -17.7807 7.6902
rfingers 7.12502
rthumb 8.482 -22.1195
lclavicle -1.76421e-014 5.56597e-015
lhumerus -18.0598 -6.05585 88.8737
lradius 65.4588
lwrist 2.42172
lhand -31.2972 24.248
lfingers 7.12502
lthumb -4.57015 54.1787
rfemur -9.4494 9.8672 14.6262
rtibia 24.9223
rfoot -15.2318 -2.64743
rtoes 5.02239
lfemur 0.855467 -2.24303 -22.0983
ltibia 10.3727
lfoot -9.51248 8.27096
ltoes -11.575
419
root -0.0327777 18.0094 -0.9307 2.77453 -12.4558 1.3963
lowerback -0.511618 -2.50414 -3.12036
upperback 0.104227 -3.33464 2.43108
thorax 0.717274 -1.6887 4.2047
lowerneck -28.0732 0.38421 -7.61697
upperneck 26.4263 3.95929 -0.0436257
head 13.4872 0.888607 2.00019
rclavicle -1.20165e-013 1.27222e-014
rhumerus -32.5915 -4.78864 -81.0826
rradius 30.7087
rwrist 20.6644
rhand -17.7195 7.49317
rfingers 7.12502
rthumb 8.54103 -22.3141
lclavicle -1.20165e-013 1.27222e-014
lhumerus -18.5101 -5.9382 89.0844
lradius 65.3413
lwrist 2.43769
lhand -31.3195 23.9968
lfingers 7.12502
lthumb -4.59161 53.9271
rfemur -9.42682 9.777 14.6012
rtibia 24.8675
rfoot -15.2399 -2.63617
rtoes 4.98733
lfemur 0.773094 -2.22487 -22.1052
ltibia 10.458
lfoot -9.50459 8.15938
ltoes -11.8458
420
root -0.029902 18.0092 -0.933568 2.74694 -12.3454 1.43497
lowerback -0.483761 -2.5484 -3.05867
upperback 0.0703606 -3.39396 2.36078
thorax 0.664646 -1.71615 4.09829
lowerneck -28.1988 0.345953 -7.57394
upperneck 26.4639 3.87499 0.033747
head 13.5292 0.865516 2.01043
rclavicle -7.17116e-014 1.11319e-014
rhumerus -32.4795 -4.7604 -81.256
rradius 30.5433
rwrist 20.7454
rhand -17.8235 7.43804
rfingers 7.12502
rthumb 8.44067 -22.3733
lclavicle -7.17116e-014 1.11319e-014
lhumerus -19.0096 -5.95144 89.2207
lradius 65.2955
lwrist 2.46631
lhand -31.3829 24.3068
lfingers 7.12502
lthumb -4.6529 54.2357
rfemur -9.3579 9.68773 14.5593
rtibia 24.8112
rfoot -15.1895 -2.68365
rtoes 4.54519
lfemur 0.736118 -2.24834 -22.1498
ltibia 10.5421
lfoot -9.4944 8.11497
ltoes -12.075
421
root -0.0282138 18.0086 -0.937601 2.73905 -12.2588 1.36516
lowerback -0.382101 -2.57549 -2.83557
upperback 0.0117069 -3.43238 2.26173
thorax 0.531704 -1.73061 3.87652
lowerneck -28.2525 0.303993 -7.39131
upperneck 26.3778 3.7377 0.0249561
head 13.5125 0.827321 1.95037
rclavicle -6.40584e-014 1.35174e-014
rhumerus -32.4937 -4.75218 -81.4887
rradius 30.4874
rwrist 20.8008
rhand -17.9463 7.552
rfingers 7.12502
rthumb 8.32213 -22.2641
lclavicle -6.40584e-014 1.35174e-014
lhumerus -19.5011 -6.04593 89.2625
lradius 65.3316
lwrist 2.49324
lhand -31.4612 24.5973
lfingers 7.12502
lthumb -4.72853 54.5246
rfemur -9.2961 9.71676 14.6455
rtibia 24.7514
rfoot -15.2271 -2.76327
rtoes 4.39894
lfemur 0.712818 -2.26379 -22.0601
ltibia 10.5933
lfoot -9.53992 8.00665
ltoes -11.8127
422
root -0.0266071 18.0091 -0.937215 2.76457 -12.2358 1.25789
lowerback -0.422387 -2.59901 -2.63808
upperback 0.0179624 -3.46364 2.22309
thorax 0.549287 -1.74587 3.72298
lowerneck -28.3136 0.269722 -7.24153
upperneck 26.1992 3.64071 -0.0388191
head 13.4581 0.798469 1.87985
rclavicle -1.84373e-014 -3.18055e-015
rhumerus -32.4517 -4.67607 -81.6765
rradius 30.5072
rwrist 20.8609
rhand -17.9061 8.10557
rfingers 7.12502
rthumb 8.36096 -21.7089
lclavicle -1.84373e-014 -3.18055e-015
lhumerus -19.8334 -5.94413 89.3522
lradius 65.3446
lwrist 2.34783
lhand -31.3909 24.506
lfingers 7.12502
lthumb -4.6606 54.4347
rfemur -9.27001 9.74563 14.761
rtibia 24.7045
rfoot -15.2223 -2.79791
rtoes 4.39145
lfemur 0.679199 -2.0996 -21.9335
ltibia 10.6375
lfoot -9.57051 7.82625
ltoes -11.6641
423
root -0.0254765 18.0091 -0.933771 2.77855 -12.2509 1.24968
lowerback -0.488592 -2.62488 -2.62315
upperback 0.00797003 -3.49697 2.21519
thorax 0.577536 -1.76282 3.70278
lowerneck -28.4125 0.244403 -7.20189
upperneck 26.1609 3.59302 -0.0329321
head 13.4638 0.783541 1.86719
rclavicle -5.56597e-015 -1.66979e-014
rhumerus -32.3959 -4.51119 -81.8092
rradius 30.4873
rwrist 20.8795
rhand -17.8544 8.88973
rfingers 7.12502
rthumb 8.41084 -20.9228
lclavicle -5.56597e-015 -1.66979e-014
lhumerus -20.2468 -5.80178 89.513
lradius 65.4084
lwrist 2.33995
lhand -31.3863 24.3179
lfingers 7.12502
lthumb -4.65614 54.2467
rfemur -9.25544 9.76452 14.7622
rtibia 24.6723
rfoot -15.204 -2.78953
rtoes 4.58736
lfemur 0.664942 -1.9156 -21.9156
ltibia 10.661
lfoot -9.62497 7.67071
ltoes -11.6023
